<svg xmlns="http://www.w3.org/2000/svg" viewBox="-0.5 13.100000381469727 321.79998779296875 36.69999694824219" data-asc="0.984"><g fill="#ffffff"><g fill="#ffffff" transform="translate(0, 0)"><path d="M13.15 49.80Q10.10 49.80 7.60 48.58Q5.10 47.35 3.28 45.10Q1.45 42.85 0.47 39.68Q-0.50 36.50-0.50 32.60Q-0.50 27.40 1.25 23.58Q3 19.75 6.13 17.68Q9.25 15.60 13.45 15.60Q16.30 15.60 18.45 16.80Q20.60 18 21.85 19.50L20.85 20.60Q19.50 19 17.65 18.05Q15.80 17.10 13.45 17.10Q9.65 17.10 6.90 19Q4.15 20.90 2.67 24.38Q1.20 27.85 1.20 32.60Q1.20 37.35 2.67 40.88Q4.15 44.40 6.85 46.35Q9.55 48.30 13.25 48.30Q15.90 48.30 17.95 47.25Q20.00 46.20 21.85 44.10L22.85 45.10Q21.00 47.25 18.70 48.53Q16.40 49.80 13.15 49.80ZM30.80 49.20L30.80 16.20L38.20 16.20Q43.30 16.20 46.58 18.25Q49.85 20.30 51.42 24Q53 27.70 53 32.60Q53 37.50 51.42 41.25Q49.85 45 46.58 47.10Q43.30 49.20 38.20 49.20L30.80 49.20M32.40 47.80L38 47.80Q42.70 47.80 45.63 45.80Q48.55 43.80 49.92 40.38Q51.30 36.95 51.30 32.60Q51.30 28.25 49.92 24.85Q48.55 21.45 45.63 19.53Q42.70 17.60 38 17.60L32.40 17.60L32.40 47.80ZM62 49.20L62 16.20L71.10 16.20Q74.35 16.20 76.72 17.05Q79.10 17.90 80.40 19.78Q81.70 21.65 81.70 24.70Q81.70 27.60 80.40 29.58Q79.10 31.55 76.72 32.58Q74.35 33.60 71.10 33.60L63.60 33.60L63.60 49.20L62 49.20M63.60 32.20L70.50 32.20Q75.10 32.20 77.55 30.35Q80 28.50 80 24.70Q80 20.80 77.55 19.20Q75.10 17.60 70.50 17.60L63.60 17.60L63.60 32.20M70.70 33.10L72.50 33L82.20 49.20L80.30 49.20L70.70 33.10ZM90 49.20L90 16.20L92.30 16.20L98.50 32.20L100.70 38.10L100.90 38.10L103 32.20L109.30 16.20L111.60 16.20L111.60 49.20L110 49.20L110 24.45Q110 23.70 110.03 22.88Q110.05 22.05 110.08 21.25Q110.10 20.45 110.13 19.63Q110.15 18.80 110.15 18.05L110 18.05L108.20 23.40L101.45 40.40L100.10 40.40L93.40 23.40L91.45 18.05L91.35 18.05Q91.35 18.80 91.40 19.63Q91.45 20.45 91.47 21.25Q91.50 22.05 91.52 22.88Q91.55 23.70 91.55 24.45L91.55 49.20L90 49.20ZM152 49.20L152 16.20L161.10 16.20Q164.35 16.20 166.73 17.05Q169.10 17.90 170.40 19.78Q171.70 21.65 171.70 24.70Q171.70 27.60 170.40 29.58Q169.10 31.55 166.73 32.58Q164.35 33.60 161.10 33.60L153.60 33.60L153.60 49.20L152 49.20M153.60 32.20L160.50 32.20Q165.10 32.20 167.55 30.35Q170 28.50 170 24.70Q170 20.80 167.55 19.20Q165.10 17.60 160.50 17.60L153.60 17.60L153.60 32.20M160.70 33.10L162.50 33L172.20 49.20L170.30 49.20L160.70 33.10ZM192.30 49.80Q188.90 49.80 186.05 48.30Q183.20 46.80 181.50 44Q179.80 41.20 179.80 37.30Q179.80 33.40 181.48 30.58Q183.15 27.75 185.88 26.23Q188.60 24.70 191.70 24.70Q194.90 24.70 197.28 26Q199.65 27.30 200.98 29.78Q202.30 32.25 202.30 35.70Q202.30 36.05 202.30 36.45Q202.30 36.85 202.20 37.30L180.30 37.30L180.30 35.90L201.80 35.90L200.90 36.70Q200.90 31.30 198.33 28.70Q195.75 26.10 191.70 26.10Q189.10 26.10 186.75 27.43Q184.40 28.75 182.90 31.23Q181.40 33.70 181.40 37.20Q181.40 40.80 182.93 43.30Q184.45 45.80 186.93 47.10Q189.40 48.40 192.30 48.40Q194.85 48.40 196.88 47.65Q198.90 46.90 200.60 45.70L201.30 47Q199.75 48 197.65 48.90Q195.55 49.80 192.30 49.80ZM221.10 49.80Q219.25 49.80 217 48.90Q214.75 48 212.90 46.50L212.80 46.50L212.60 49.20L211.30 49.20L211.30 13.10L212.80 13.10L212.80 23.80L212.70 29.10L212.80 29.10Q214.70 27.15 217.20 25.93Q219.70 24.70 222.10 24.70Q225.55 24.70 227.80 26.20Q230.05 27.70 231.18 30.45Q232.30 33.20 232.30 36.90Q232.30 40.95 230.75 43.83Q229.20 46.70 226.65 48.25Q224.10 49.80 221.10 49.80M221.20 48.40Q223.95 48.40 226.10 46.93Q228.25 45.45 229.48 42.85Q230.70 40.25 230.70 36.90Q230.70 33.85 229.83 31.40Q228.95 28.95 227.05 27.53Q225.15 26.10 222 26.10Q220 26.10 217.60 27.25Q215.20 28.40 212.80 30.80L212.80 44.60Q215.05 46.65 217.35 47.53Q219.65 48.40 221.20 48.40ZM250.80 49.80Q247.65 49.80 245.05 48.33Q242.45 46.85 240.88 44.05Q239.30 41.25 239.30 37.30Q239.30 33.30 240.88 30.48Q242.45 27.65 245.05 26.18Q247.65 24.70 250.80 24.70Q253.95 24.70 256.55 26.18Q259.15 27.65 260.73 30.48Q262.30 33.30 262.30 37.30Q262.30 41.25 260.73 44.05Q259.15 46.85 256.55 48.33Q253.95 49.80 250.80 49.80M250.80 48.40Q253.65 48.40 255.90 47Q258.15 45.60 259.43 43.10Q260.70 40.60 260.70 37.30Q260.70 34 259.43 31.48Q258.15 28.95 255.90 27.53Q253.65 26.10 250.80 26.10Q247.95 26.10 245.73 27.53Q243.50 28.95 242.20 31.48Q240.90 34 240.90 37.30Q240.90 40.60 242.20 43.10Q243.50 45.60 245.73 47Q247.95 48.40 250.80 48.40ZM274.30 49.20L274.30 25.30L275.60 25.30L275.80 31.30L275.90 31.30Q277.85 28.45 280.78 26.58Q283.70 24.70 287.35 24.70Q288.50 24.70 289.78 24.90Q291.05 25.10 292.20 25.70L291.70 27.10Q290.35 26.60 289.48 26.40Q288.60 26.20 287.15 26.20Q284.05 26.20 281.25 27.95Q278.45 29.70 275.80 33.90L275.80 49.20L274.30 49.20ZM301.30 49.20L301.30 25.30L302.60 25.30L302.80 30.10L303 30.10Q305.15 27.75 307.43 26.23Q309.70 24.70 312.60 24.70Q317 24.70 319.15 27.05Q321.30 29.40 321.30 34.30L321.30 49.20L319.80 49.20L319.80 34.50Q319.80 30.25 318.10 28.18Q316.40 26.10 312.60 26.10Q309.90 26.10 307.75 27.53Q305.60 28.95 302.80 31.90L302.80 49.20L301.30 49.20Z"/></g></g></svg>